<svg xmlns="http://www.w3.org/2000/svg" width="798" height="558" viewBox="0 0 798 558"><g><g><path fill="#ffe06a" d="M85.674 520.559v-336.56h711.681c.238-11.347-.31-22.486-1.628-33.108-1.343-10.823-3.506-21.272-6.43-31.056-6.107-20.443-15.527-38.186-28-52.735-5.31-6.189-11.403-12.04-18.111-17.392-6.482-5.17-13.709-10.012-21.48-14.388-7.497-4.222-15.699-8.124-24.376-11.596-8.358-3.344-17.376-6.377-26.804-9.015C636.222 5.11 595.158.244 548.478.244c-30.686 0-63.169 2.1-96.546 6.241-54.457 6.798-102.62 18.09-147.24 34.524a563.275 563.275 0 0 0-32.48 13.128 575.467 575.467 0 0 0-31.376 15.002 616.452 616.452 0 0 0-30.59 16.912 692.685 692.685 0 0 0-30.122 18.862c-21.022 13.867-40.76 28.452-58.668 43.348-19.725 16.408-37.384 33.332-52.487 50.303-34.617 38.9-56.246 78.364-64.287 117.297-3.84 18.595-4.797 37.973-2.843 57.596 1.905 19.132 6.527 38.066 13.737 56.275 7.207 18.201 16.808 35.196 28.538 50.513 12.021 15.697 26.004 29.26 41.559 40.313z"/></g><g clip-path="url(#clip-8accd039-dd60-4639-92c4-163882397092)"><path fill="#ffe06a" d="M452.346 6.486c-110.206 13.756-191.832 45.498-271.81 98.426-79.884 52.7-158.045 126.724-175.44 210.95-17.397 84.225 25.806 178.739 103.482 218.333 77.843 39.505 190.084 23.95 308.544-6.033C535.58 498.18 660.258 453.771 731.74 363.568c71.648-90.293 90.175-226.24 29.971-296.468C701.581-2.988 562.794-7.219 452.346 6.486z"/></g></g></svg>